<svg xmlns="http://www.w3.org/2000/svg" width="61" height="61" viewBox="0 0 16.14 16.14">
  <g fill="#009c9b">
    <path d="M6.601 13.244A6.61 6.63 0 0 1 0 6.62 6.608 6.628 0 0 1 6.601 0a6.608 6.628 0 0 1 6.093 9.177l-.555-.233A6.007 6.025 0 0 0 6.601.602a6.007 6.025 0 0 0-5.998 6.02 6.008 6.026 0 0 0 6 6.02 5.996 6.014 0 0 0 3.001-.806l.3.52a6.595 6.616 0 0 1-3.302.889z"/>
    <path d="M14.746 16.14l-.038-.003a.301.302 0 0 1-.207-.113c-.66-.837-1.412-1.752-1.726-2.08a2.907 2.907 0 0 1-1.077.398.301.302 0 0 1-.32-.195L9.355 8.621a.301.302 0 0 1 .437-.362l5.029 3.036a.3.301 0 0 1 .13.354c-.008.026-.19.555-.595.984.262.372 1.016 1.285 1.71 2.094a.302.302 0 0 1 .072.225.743.745 0 0 1-.18.382 3.562 3.573 0 0 1-.406.387 3.513 3.513 0 0 1-.437.312.793.796 0 0 1-.37.106zm-1.956-2.878c.158 0 .296 0 2.059 2.23a3.329 3.339 0 0 0 .331-.244l.01-.007a3.368 3.379 0 0 0 .292-.272c-1.824-2.128-1.81-2.281-1.8-2.418a.322.323 0 0 1 .113-.214c.237-.197.4-.47.493-.66l-4.073-2.46 1.639 4.477a2.02 2.02 0 0 0 .738-.361.32.321 0 0 1 .198-.07zM6.212 9.561h-.71v-.598h.71c.204 0 .452-.01.743-.083.603-.148.688-.68.7-1.068l-.664.005c-.309 0-.581-.032-.912-.104-1.19-.297-1.19-1.268-1.19-1.85v-.218c0-.584 0-1.562 1.19-1.858a4.01 4.023 0 0 1 .912-.104H7.7v.597h-.71c-.214 0-.453.01-.743.083-.593.147-.688.68-.707 1.068l.671-.005c.307 0 .58.032.912.104 1.19.298 1.19 1.27 1.19 1.851v.217c0 .585 0 1.563-1.19 1.859-.33.074-.603.105-.912.105zm-.447-.262h.447c.29 0 .544-.03.853-.098.987-.245.987-1.03.987-1.603V7.38c0-.569 0-1.347-.987-1.595a3.798 3.81 0 0 0-.853-.097h-.676a.257.258 0 0 1-.257-.27c.037-.73.343-1.17.906-1.31.317-.079.574-.09.807-.09h.447v-.074h-.447c-.29 0-.545.03-.853.097-.989.247-.989 1.03-.989 1.604v.218c0 .569 0 1.348.99 1.594.307.068.563.098.852.098h.668a.257.258 0 0 1 .257.266c-.024.73-.326 1.171-.899 1.314-.318.08-.585.089-.807.089h-.446zM7.668 7.48h-.676c-.22 0-.488-.01-.807-.09-.588-.146-.893-.606-.906-1.367a.257.258 0 0 1 .257-.262h.675c.22 0 .49.01.808.091.574.144.88.602.905 1.362a.257.258 0 0 1-.257.267zM5.54 6.024c.007.402.088.958.708 1.111.291.074.54.083.744.083h.676c-.02-.403-.107-.961-.711-1.112a2.963 2.972 0 0 0-.745-.083H5.54z"/>
  </g>
</svg>
