<svg xmlns="http://www.w3.org/2000/svg" width="57" height="60" viewBox="0 0 15.081 15.875">
  <g fill="#ea4c6e">
    <path d="M12.666 13.728a.3.304 0 0 1-.124-.027L6.69 11.06a.303.308 0 0 1-.117-.47l3.802-5.063-6.16 4.343a.303.308 0 0 1-.318.017L.159 7.829a.304.31 0 0 1 .01-.549L14.644.032a.303.308 0 0 1 .433.327l-2.111 13.11a.303.308 0 0 1-.3.258zm-5.378-3.072l5.141 2.318L14.382.853.964 7.569l3.059 1.685 7.589-5.352a.304.31 0 0 1 .415.442z"/>
    <path d="M6.813 15.875a.304.31 0 0 1-.303-.308V10.78a.304.309 0 0 1 .607 0v3.906l1.746-2.22a.304.31 0 0 1 .475.386l-2.287 2.907a.302.307 0 0 1-.237.116z"/>
  </g>
</svg>
