<svg xmlns="http://www.w3.org/2000/svg" width="35" height="62" viewBox="0 0 9.261 16.404">
  <g fill="#00a8d7">
    <path d="M4.046 16.404a.301.303 0 0 1-.3-.302l.001-.09c.012-.617-.004-.842-.017-.924-.257-.281-1.447-1.6-1.447-1.972l-.001-2.993c-.007-.313-.02-.899.303-1.23a.773.778 0 0 1 .567-.23c.616 0 .891.29.891.94a.302.304 0 0 1-.604 0c0-.335-.027-.335-.287-.335-.08 0-.114.024-.137.048-.145.149-.135.601-.131.793l.002.108v2.856c.124.257.993 1.31 1.32 1.64.115.116.164.276.144 1.312l-.002.077a.302.304 0 0 1-.302.302z"/>
    <path d="M3.741 11.771a.301.303 0 0 1-.302-.302V6.067c0-1.158.545-1.401 1-1.401 1 0 1 .836 1 1.334v3.383a.301.303 0 0 1-.602 0V6.001c0-.697-.096-.73-.398-.73-.138 0-.397 0-.397.796v5.402a.301.303 0 0 1-.3.302z"/>
    <path d="M6.383 10.037a.301.303 0 0 1-.301-.303v-.966c-.004-.078-.125-.269-.223-.269h-.525a.301.303 0 0 1 0-.605h.525c.495 0 .825.525.825.874v.966a.301.303 0 0 1-.3.303z"/>
    <path d="M7.671 10.608a.301.303 0 0 1-.302-.303v-.966c-.003-.078-.123-.27-.221-.27h-.525a.301.303 0 0 1 0-.605h.525c.495 0 .824.527.824.875v.966a.302.304 0 0 1-.3.302z"/>
    <path d="M8.13 16.371a.301.303 0 0 1-.301-.285c-.073-1.29.02-1.382.109-1.472.22-.222.72-1.065.72-1.39V9.865c-.004-.077-.125-.269-.223-.269h-.698a.301.303 0 0 1 0-.605h.698c.496 0 .826.527.826.874v3.36c0 .525-.555 1.428-.842 1.76-.02.167-.012.661.01 1.067a.301.303 0 0 1-.282.318l-.018.001zm-5.18-9.94a.3.302 0 0 1-.163-.05 3.317 3.336 0 0 1-.39-5.293.301.303 0 0 1 .398.454 2.713 2.729 0 0 0 .32 4.332.301.303 0 0 1-.164.557zm3.346 0a.301.303 0 0 1-.164-.558 2.713 2.729 0 0 0 .32-4.332.301.303 0 1 1 .397-.453 3.316 3.335 0 0 1-.39 5.293.298.3 0 0 1-.163.05z"/>
    <path d="M2.249 7.44a.3.302 0 0 1-.164-.05A4.568 4.594 0 0 1 0 3.53C0 2.21.564.952 1.547.078a.301.303 0 0 1 .399.454 3.98 4.003 0 0 0 .467 6.35.301.303 0 0 1-.164.558zm4.749 0a.301.303 0 0 1-.164-.557 3.98 4.003 0 0 0 .468-6.35A.301.303 0 1 1 7.7.079a4.583 4.609 0 0 1-.539 7.314.3.302 0 0 1-.163.048z"/>
  </g>
</svg>
