<svg xmlns="http://www.w3.org/2000/svg" width="64" height="60" viewBox="0 0 16.933 15.875">
  <g fill="#8b6faf">
    <path d="M6.097 7.18a1.138 1.153 0 0 1-1.138-1.152 1.138 1.153 0 0 1 2.274 0c0 .635-.511 1.152-1.137 1.152zm0-1.685a.528.535 0 1 0 0 1.069.528.535 0 0 0 0-1.07zm2.218-.112a1.138 1.153 0 0 1 0-2.303c.626 0 1.137.517 1.137 1.151 0 .635-.511 1.152-1.138 1.152zm0-1.686a.528.535 0 1 0 0 1.07.528.535 0 0 0 0-1.07zm-.103 5.08a1.14 1.154 0 0 1 0-2.303 1.137 1.151 0 1 1 0 2.302zm0-1.688a.528.535 0 1 0 .001 1.07.528.535 0 0 0 0-1.07z"/>
    <path d="M9.995 6.974a1.147 1.147 0 0 1-1.137-1.152 1.138 1.153 0 0 1 2.274 0c0 .635-.51 1.152-1.137 1.152zm0-1.687a.528.535 0 1 0 0 1.07.528.535 0 0 0 0-1.07zm2.237.022a1.14 1.154 0 0 1 0-2.304 1.138 1.153 0 0 1 0 2.304zm0-1.687a.528.535 0 1 0 .002 1.07.528.535 0 0 0-.001-1.07z"/>
    <path d="M10.156 12.251a.305.308 0 0 1-.305-.31V8.105l2.076-1.342V5.029a.305.309 0 0 1 .61 0v2.07l-2.076 1.343v3.5a.305.308 0 0 1-.305.309zm-1.944.94a.305.308 0 0 1-.305-.31v-2.704L5.743 8.61V6.93a.305.308 0 0 1 .61 0v1.363l2.163 1.566v3.022a.305.308 0 0 1-.304.31zm.045 1.431a.305.308 0 0 1-.306-.308v-.672a.305.309 0 0 1 .61 0v.672a.305.308 0 0 1-.304.308zm1.899-1.118a.305.308 0 0 1-.305-.31v-.491a.305.308 0 0 1 .61 0v.492a.305.308 0 0 1-.305.31zm.044 1.343a.305.308 0 0 1-.304-.31V14a.305.308 0 0 1 .609 0v.538a.305.308 0 0 1-.305.309zm-1.9 1.028a.305.308 0 0 1-.304-.31v-.446a.305.308 0 0 1 .61 0v.447a.305.308 0 0 1-.305.31zm-.043-8.77a.305.308 0 0 1-.306-.309v-1.7a.305.309 0 0 1 .61 0v1.7a.305.308 0 0 1-.304.309z"/>
    <path d="M14.044 11.177c-.504 0-1.7-.01-3.14-.02a.306.31 0 0 1 .002-.62h.003c1.438.013 2.632.022 3.135.022.717 0 1.31-.264 1.714-.764.365-.452.566-1.073.566-1.752 0-1.333-.783-2.683-2.28-2.683-.015 0-.03 0-.045.002l-.054.004a.309.313 0 0 1-.247-.114.311.311 0 0 1-.06-.268c.067-.281.1-.56.1-.828a3.498 3.543 0 0 0-3.494-3.54 3.484 3.529 0 0 0-3.32 2.443.306.31 0 0 1-.412.189A2.084 2.11 0 0 0 3.763 5.97a.306.31 0 0 1-.383.406 2.076 2.102 0 0 0-.69-.122A2.084 2.11 0 0 0 .608 8.363a2.084 2.11 0 0 0 2.08 2.107c.577 0 2.464.018 4.687.037a.306.31 0 0 1-.003.619H7.37c-2.221-.02-4.107-.038-4.68-.038A2.694 2.728 0 0 1 0 8.363a2.694 2.728 0 0 1 3.045-2.7A2.694 2.728 0 0 1 6.451 2.57 4.092 4.145 0 0 1 10.244 0a4.108 4.161 0 0 1 4.105 4.157c0 .196-.015.396-.045.597 1.728.144 2.63 1.727 2.63 3.29 0 .821-.25 1.582-.704 2.142-.524.649-1.28.99-2.186.99z"/>
  </g>
</svg>
