<svg xmlns="http://www.w3.org/2000/svg" width="61" height="61" viewBox="0 0 16.139 16.139">
  <g fill="#cdd500">
    <path d="M3.552 16.14a3.548 3.517 0 0 1-3.54-3.498L0 9.389a3.519 3.489 0 0 1 1.028-2.485 3.517 3.487 0 0 1 2.5-1.036A3.55 3.52 0 0 1 7.08 9.366l.012 3.251a3.545 3.514 0 0 1-3.528 3.522zm-.01-9.67a2.92 2.896 0 0 0-2.084.86 2.913 2.889 0 0 0-.85 2.057l.01 3.25a2.94 2.914 0 0 0 2.935 2.9v.3l.01-.3a2.937 2.912 0 0 0 2.924-2.919l-.012-3.251a2.94 2.914 0 0 0-2.933-2.899z"/>
    <path d="M6.778 9.358l.002.603-6.305.02-.002-.602z"/>
    <path d="M10.545 13.301c-.73 0-1.41-.328-1.916-.924-.417-.49-.677-1.117-.678-1.64l-.022-5.96c-.002-.653-.214-1.195-.61-1.567-.38-.355-.905-.542-1.522-.542h-.01c-1.256.005-1.921 1.115-1.918 1.915l.018 5.002-.608.002-.018-5.002c-.004-1.212 1.01-2.513 2.523-2.518.769-.002 1.456.241 1.951.706.52.488.798 1.18.8 2.003l.022 5.96c0 .312.167.82.535 1.253.275.325.751.71 1.453.71h.006c.696-.002 1.195-.148 1.526-.448.365-.329.542-.857.539-1.613l-.01-2.917.606-.002.01 2.917c.004.922-.244 1.616-.736 2.06-.449.404-1.08.603-1.933.605z"/>
    <path d="M12.81 6.604a3.336 3.308 0 0 1-3.331-3.291A3.334 3.306 0 0 1 12.797 0a3.34 3.312 0 0 1 3.342 3.29 3.334 3.306 0 0 1-3.317 3.314zm0-6.002a2.728 2.705 0 0 0-2.724 2.709 2.728 2.705 0 0 0 2.723 2.692v.3l.01-.3a2.727 2.704 0 0 0 2.713-2.71A2.728 2.705 0 0 0 12.81.602z"/>
    <path d="M12.662 5.03l-.001-.36a1.31 1.298 0 0 1-.398-.116.824.817 0 0 1-.314-.296 1.062 1.053 0 0 1-.153-.493l-.004-.059.482-.09.01.067c.027.177.072.307.133.385a.47.47 0 0 0 .242.17l-.003-.989a1.598 1.585 0 0 1-.415-.162.725.719 0 0 1-.287-.284.851.844 0 0 1-.102-.409c0-.268.097-.49.29-.657.117-.105.288-.173.508-.203l-.001-.175.34-.002v.176a.916.916 0 0 1 .47.186.865.865 0 0 1 .303.565l.01.065-.496.076-.01-.065a.551.547 0 0 0-.117-.283.38.378 0 0 0-.157-.103l.003.878c.156.038.259.07.315.093a.942.934 0 0 1 .29.188.786.779 0 0 1 .177.269.9.9 0 0 1 .062.332.913.906 0 0 1-.837.935v.36zm-.728-1.217a.887.88 0 0 0 .125.374.691.685 0 0 0 .264.25c.104.054.242.09.411.111l.058.006V4.9h.078l-.001-.354.063-.003a.786.779 0 0 0 .776-.808.762.762 0 0 0-.053-.285.643.638 0 0 0-.147-.223.81.803 0 0 0-.25-.162 2.74 2.718 0 0 0-.345-.098l-.05-.012-.004-1.145.08.016a.556.552 0 0 1 .309.164c.064.071.11.168.137.287l.236-.036a.715.709 0 0 0-.247-.42.82.813 0 0 0-.456-.163l-.06-.006V1.49h-.078v.162l-.059.006c-.219.022-.385.083-.494.178a.707.7 0 0 0-.243.558c0 .129.029.245.084.346a.587.587 0 0 0 .237.234c.146.08.29.134.428.159l.053.01.005 1.246-.073-.007a.58.575 0 0 1-.404-.232.867.86 0 0 1-.15-.38zm.934.577l-.004-1.236.086.028c.204.065.339.139.413.227a.538.534 0 0 1 .111.35.628.623 0 0 1-.15.42.593.588 0 0 1-.381.201zm.129-1.054l.003.9a.452.448 0 0 0 .225-.142.486.481 0 0 0 .118-.335.416.412 0 0 0-.082-.266c-.033-.04-.105-.097-.264-.157zm-.21-.39l-.085-.025c-.174-.05-.3-.122-.377-.212a.524.52 0 0 1-.118-.343c0-.137.045-.257.135-.358a.592.587 0 0 1 .365-.187l.075-.012zm-.136-.979a.429.425 0 0 0-.21.128.392.389 0 0 0-.102.27c0 .105.029.19.086.26a.55.546 0 0 0 .229.143zm.191 6.115c-.753 0-1.045-.62-1.059-1.038l-.003-.78.607-.002.003.772c.005.096.054.447.453.447h.002c.446-.002.61-.166.608-.608l-.002-.677.608-.002.003.677c.002.768-.44 1.21-1.215 1.211z"/>
  </g>
</svg>
